<svg xmlns="http://www.w3.org/2000/svg" xmlns:xlink="http://www.w3.org/1999/xlink" width="940" height="928.4"><rect width="940" height="928.4" rx="5" ry="5" class="a"/><svg y="0%" x="0%"><circle cx="20" cy="20" r="6" fill="#ff5f58"/><circle cx="40" cy="20" r="6" fill="#ffbd2e"/><circle cx="60" cy="20" r="6" fill="#18c132"/></svg><svg height="868.4" viewBox="0 0 90 86.84" width="900" x="15" xmlns="http://www.w3.org/2000/svg" xmlns:xlink="http://www.w3.org/1999/xlink" y="50"><style>@keyframes l{0%{transform:translateX(0)}35.8%{transform:translateX(-90px)}36%{transform:translateX(-180px)}95.5%{transform:translateX(-270px)}95.6%{transform:translateX(-450px)}95.7%{transform:translateX(-540px)}95.8%{transform:translateX(-630px)}95.9%{transform:translateX(-720px)}96%{transform:translateX(-810px)}98.4%{transform:translateX(-900px)}99.8%{transform:translateX(-990px)}to{transform:translateX(-1080px)}}.a{fill:#282d35}.f,.g,.h,.i{fill:#b9c0cb;white-space:pre}.g,.h,.i{fill:#a8cc8c}.h,.i{fill:#6f7783}.i{fill:#71bef2}</style><g font-family="Monaco,Consolas,Menlo,'Bitstream Vera Sans Mono','Powerline Symbols',monospace" font-size="1.67"><defs><symbol id="1"><text y="1.67" class="f">▶</text><text x="2.004" y="1.67" class="f">Goal</text><text x="7.014" y="1.67" class="f">#2</text><text x="10.02" y="1.67" class="f">—</text><text x="12.024" y="1.67" class="f">denial</text><text x="19.038" y="1.67" class="f">holds</text><text x="25.05" y="1.67" class="f">against</text><text x="33.066" y="1.67" class="f">a</text><text x="35.07" y="1.67" class="f">non-owned</text><text x="45.09" y="1.67" class="f">group</text><text x="51.102" y="1.67" class="f">(Layer</text><text x="58.116" y="1.67" class="f">2,</text><text x="61.122" y="1.67" class="f">FGA</text><text x="65.13" y="1.67" class="f">off)</text></symbol><symbol id="2"><text x="2.004" y="1.67" class="g">✔</text><text x="4.008" y="1.67" class="g">ATTACK:</text><text x="12.024" y="1.67" class="g">plainly</text><text x="20.04" y="1.67" class="g">read</text><text x="25.05" y="1.67" class="g">a</text><text x="27.054" y="1.67" class="g">group</text><text x="33.066" y="1.67" class="g">she</text><text x="37.074" y="1.67" class="g">does</text><text x="42.084" y="1.67" class="g">not</text><text x="46.092" y="1.67" class="g">own</text><text x="50.1" y="1.67" class="g">→</text><text x="52.104" y="1.67" class="g">DENIED</text><text x="59.118" y="1.67" class="h">(1.910647ms)</text></symbol><symbol id="3"><text x="2.004" y="1.67" class="g">✔</text><text x="4.008" y="1.67" class="g">ATTACK:</text><text x="12.024" y="1.67" class="g">add</text><text x="16.032" y="1.67" class="g">herself</text><text x="24.048" y="1.67" class="g">to</text><text x="27.054" y="1.67" class="g">a</text><text x="29.058" y="1.67" class="g">group</text><text x="35.07" y="1.67" class="g">she</text><text x="39.078" y="1.67" class="g">does</text><text x="44.088" y="1.67" class="g">not</text><text x="48.096" y="1.67" class="g">own</text><text x="52.104" y="1.67" class="g">→</text><text x="54.108" y="1.67" class="g">DENIED,</text><text x="62.124" y="1.67" class="g">no</text><text x="65.13" y="1.67" class="g">write</text><text x="71.142" y="1.67" class="h">(0.76573ms)</text></symbol><symbol id="4"><text x="2.004" y="1.67" class="g">✔</text><text x="4.008" y="1.67" class="g">ATTACK:</text><text x="12.024" y="1.67" class="g">remove</text><text x="19.038" y="1.67" class="g">someone</text><text x="27.054" y="1.67" class="g">from</text><text x="32.064" y="1.67" class="g">a</text><text x="34.068" y="1.67" class="g">group</text><text x="40.08" y="1.67" class="g">she</text><text x="44.088" y="1.67" class="g">does</text><text x="49.098" y="1.67" class="g">not</text><text x="53.106" y="1.67" class="g">own</text><text x="57.114" y="1.67" class="g">→</text><text x="59.118" y="1.67" class="g">DENIED,</text><text x="67.134" y="1.67" class="g">no</text><text x="70.14" y="1.67" class="g">write</text><text x="76.152" y="1.67" class="h">(0.418049ms)</text></symbol><symbol id="5"><text x="2.004" y="1.67" class="g">✔</text><text x="4.008" y="1.67" class="g">ATTACK:</text><text x="12.024" y="1.67" class="g">spoof</text><text x="18.036" y="1.67" class="g">identity</text><text x="27.054" y="1.67" class="g">via</text><text x="31.062" y="1.67" class="g">a</text><text x="33.066" y="1.67" class="g">forged</text><text x="40.08" y="1.67" class="g">`subject`</text><text x="50.1" y="1.67" class="g">argument</text><text x="59.118" y="1.67" class="g">→</text><text x="61.122" y="1.67" class="g">IGNORED,</text><text x="70.14" y="1.67" class="g">DENIED</text><text x="77.154" y="1.67" class="h">(0.378618ms)</text></symbol><symbol id="6"><text x="2.004" y="1.67" class="g">✔</text><text x="4.008" y="1.67" class="g">ATTACK:</text><text x="12.024" y="1.67" class="g">injection-style</text><text x="28.056" y="1.67" class="g">groupId</text><text x="36.072" y="1.67" class="g">string</text><text x="43.086" y="1.67" class="g">→</text><text x="45.09" y="1.67" class="g">treated</text><text x="53.106" y="1.67" class="g">as</text><text x="56.112" y="1.67" class="g">a</text><text x="58.116" y="1.67" class="g">plain</text><text x="64.128" y="1.67" class="g">id,</text><text x="68.136" y="1.67" class="g">DENIED</text><text x="75.15" y="1.67" class="h">(0.394456ms)</text></symbol><symbol id="7"><text x="2.004" y="1.67" class="g">✔</text><text x="4.008" y="1.67" class="g">ATTACK:</text><text x="12.024" y="1.67" class="g">empty</text><text x="18.036" y="1.67" class="g">/</text><text x="20.04" y="1.67" class="g">anonymous</text><text x="30.06" y="1.67" class="g">subject</text><text x="38.076" y="1.67" class="g">(no</text><text x="42.084" y="1.67" class="g">valid</text><text x="48.096" y="1.67" class="g">token)</text><text x="55.11" y="1.67" class="g">→</text><text x="57.114" y="1.67" class="g">DENIED</text><text x="64.128" y="1.67" class="h">(0.322489ms)</text></symbol><symbol id="8"><text x="2.004" y="1.67" class="g">✔</text><text x="4.008" y="1.67" class="g">ATTACK:</text><text x="12.024" y="1.67" class="g">&quot;check&quot;</text><text x="20.04" y="1.67" class="g">is</text><text x="23.046" y="1.67" class="g">not</text><text x="27.054" y="1.67" class="g">a</text><text x="29.058" y="1.67" class="g">read-only</text><text x="39.078" y="1.67" class="g">loophole</text><text x="48.096" y="1.67" class="g">on</text><text x="51.102" y="1.67" class="g">a</text><text x="53.106" y="1.67" class="g">non-owned</text><text x="63.126" y="1.67" class="g">group</text><text x="69.138" y="1.67" class="g">→</text><text x="71.142" y="1.67" class="g">DENIED</text><text x="78.156" y="1.67" class="h">(0.4816ms)</text></symbol><symbol id="9"><text y="1.67" class="g">✔</text><text x="2.004" y="1.67" class="g">Goal</text><text x="7.014" y="1.67" class="g">#2</text><text x="10.02" y="1.67" class="g">—</text><text x="12.024" y="1.67" class="g">denial</text><text x="19.038" y="1.67" class="g">holds</text><text x="25.05" y="1.67" class="g">against</text><text x="33.066" y="1.67" class="g">a</text><text x="35.07" y="1.67" class="g">non-owned</text><text x="45.09" y="1.67" class="g">group</text><text x="51.102" y="1.67" class="g">(Layer</text><text x="58.116" y="1.67" class="g">2,</text><text x="61.122" y="1.67" class="g">FGA</text><text x="65.13" y="1.67" class="g">off)</text><text x="70.14" y="1.67" class="h">(5.80905ms)</text></symbol><symbol id="10"><text y="1.67" class="f">▶</text><text x="2.004" y="1.67" class="f">Goal</text><text x="7.014" y="1.67" class="f">#1</text><text x="10.02" y="1.67" class="f">—</text><text x="12.024" y="1.67" class="f">the</text><text x="16.032" y="1.67" class="f">owner</text><text x="22.044" y="1.67" class="f">can</text><text x="26.052" y="1.67" class="f">do</text><text x="29.058" y="1.67" class="f">her</text><text x="33.066" y="1.67" class="f">job</text></symbol><symbol id="11"><text x="2.004" y="1.67" class="g">✔</text><text x="4.008" y="1.67" class="g">list_my_owned_groups</text><text x="25.05" y="1.67" class="g">returns</text><text x="33.066" y="1.67" class="g">ONLY</text><text x="38.076" y="1.67" class="g">Alice’s</text><text x="46.092" y="1.67" class="g">group</text><text x="52.104" y="1.67" class="h">(1.820024ms)</text></symbol><symbol id="12"><text x="2.004" y="1.67" class="g">✔</text><text x="4.008" y="1.67" class="g">read</text><text x="9.018" y="1.67" class="g">members</text><text x="17.034" y="1.67" class="g">of</text><text x="20.04" y="1.67" class="g">her</text><text x="24.048" y="1.67" class="g">OWN</text><text x="28.056" y="1.67" class="g">group</text><text x="34.068" y="1.67" class="g">→</text><text x="36.072" y="1.67" class="g">allowed</text><text x="44.088" y="1.67" class="h">(0.43912ms)</text></symbol><symbol id="13"><text x="2.004" y="1.67" class="g">✔</text><text x="4.008" y="1.67" class="g">add</text><text x="8.016" y="1.67" class="g">a</text><text x="10.02" y="1.67" class="g">member</text><text x="17.034" y="1.67" class="g">to</text><text x="20.04" y="1.67" class="g">her</text><text x="24.048" y="1.67" class="g">OWN</text><text x="28.056" y="1.67" class="g">group</text><text x="34.068" y="1.67" class="g">→</text><text x="36.072" y="1.67" class="g">allowed,</text><text x="45.09" y="1.67" class="g">write</text><text x="51.102" y="1.67" class="g">DID</text><text x="55.11" y="1.67" class="g">fire</text><text x="60.12" y="1.67" class="h">(0.406416ms)</text></symbol><symbol id="14"><text y="1.67" class="g">✔</text><text x="2.004" y="1.67" class="g">Goal</text><text x="7.014" y="1.67" class="g">#1</text><text x="10.02" y="1.67" class="g">—</text><text x="12.024" y="1.67" class="g">the</text><text x="16.032" y="1.67" class="g">owner</text><text x="22.044" y="1.67" class="g">can</text><text x="26.052" y="1.67" class="g">do</text><text x="29.058" y="1.67" class="g">her</text><text x="33.066" y="1.67" class="g">job</text><text x="37.074" y="1.67" class="h">(2.871212ms)</text></symbol><symbol id="15"><text y="1.67" class="f">▶</text><text x="2.004" y="1.67" class="f">Structural</text><text x="13.026" y="1.67" class="f">—</text><text x="15.03" y="1.67" class="f">the</text><text x="19.038" y="1.67" class="f">tools</text><text x="25.05" y="1.67" class="f">cannot</text><text x="32.064" y="1.67" class="f">modify</text><text x="39.078" y="1.67" class="f">ownership</text><text x="49.098" y="1.67" class="f">at</text><text x="52.104" y="1.67" class="f">all</text></symbol><symbol id="16"><text x="2.004" y="1.67" class="g">✔</text><text x="4.008" y="1.67" class="g">the</text><text x="8.016" y="1.67" class="g">Okta</text><text x="13.026" y="1.67" class="g">client</text><text x="20.04" y="1.67" class="g">exposes</text><text x="28.056" y="1.67" class="g">NO</text><text x="31.062" y="1.67" class="g">owner-mutation</text><text x="46.092" y="1.67" class="g">method</text><text x="53.106" y="1.67" class="h">(0.252047ms)</text></symbol><symbol id="17"><text y="1.67" class="g">✔</text><text x="2.004" y="1.67" class="g">Structural</text><text x="13.026" y="1.67" class="g">—</text><text x="15.03" y="1.67" class="g">the</text><text x="19.038" y="1.67" class="g">tools</text><text x="25.05" y="1.67" class="g">cannot</text><text x="32.064" y="1.67" class="g">modify</text><text x="39.078" y="1.67" class="g">ownership</text><text x="49.098" y="1.67" class="g">at</text><text x="52.104" y="1.67" class="g">all</text><text x="56.112" y="1.67" class="h">(0.320439ms)</text></symbol><symbol id="18"><text y="1.67" class="i">ℹ</text><text x="2.004" y="1.67" class="i">tests</text><text x="8.016" y="1.67" class="i">11</text></symbol><symbol id="19"><text y="1.67" class="i">ℹ</text><text x="2.004" y="1.67" class="i">suites</text><text x="9.018" y="1.67" class="i">3</text></symbol><symbol id="20"><text y="1.67" class="i">ℹ</text><text x="2.004" y="1.67" class="i">pass</text><text x="7.014" y="1.67" class="i">11</text></symbol><symbol id="21"><text y="1.67" class="i">ℹ</text><text x="2.004" y="1.67" class="i">fail</text><text x="7.014" y="1.67" class="i">0</text></symbol><symbol id="22"><text y="1.67" class="i">ℹ</text><text x="2.004" y="1.67" class="i">cancelled</text><text x="12.024" y="1.67" class="i">0</text></symbol><symbol id="23"><text y="1.67" class="i">ℹ</text><text x="2.004" y="1.67" class="i">skipped</text><text x="10.02" y="1.67" class="i">0</text></symbol><symbol id="24"><text y="1.67" class="i">ℹ</text><text x="2.004" y="1.67" class="i">todo</text><text x="7.014" y="1.67" class="i">0</text></symbol><symbol id="25"><text y="1.67" class="i">ℹ</text><text x="2.004" y="1.67" class="i">duration_ms</text><text x="14.028" y="1.67" class="i">332.333765</text></symbol><symbol id="a"><path fill="transparent" d="M0 0h90v41H0z"/></symbol><symbol id="b"><path fill="#6f7683" d="M0 0h1.102v2.171H0z"/></symbol></defs><path class="a" d="M0 0h90v86.84H0z"/><g style="animation-duration:.754059s;animation-iteration-count:infinite;animation-name:l;animation-timing-function:steps(1,end)"><svg width="1170"><svg><use xlink:href="#a"/><use xlink:href="#b" x="-.004"/></svg><svg x="90"><use xlink:href="#a"/><use xlink:href="#b" x="-.004"/></svg><svg x="180"><use xlink:href="#a"/><use xlink:href="#b" x="-.004"/></svg><svg x="270"><use xlink:href="#a"/><use xlink:href="#b" x="-.004" y="4.317"/><use xlink:href="#1"/><use xlink:href="#2" y="2.171"/></svg><svg x="360"><use xlink:href="#a"/><use xlink:href="#b" x="-.004" y="10.83"/><use xlink:href="#1"/><use xlink:href="#2" y="2.171"/><use xlink:href="#3" y="4.342"/><use xlink:href="#4" y="6.513"/><use xlink:href="#5" y="8.684"/></svg><svg x="450"><use xlink:href="#a"/><use xlink:href="#b" x="-.004" y="15.172"/><use xlink:href="#1"/><use xlink:href="#2" y="2.171"/><use xlink:href="#3" y="4.342"/><use xlink:href="#4" y="6.513"/><use xlink:href="#5" y="8.684"/><use xlink:href="#6" y="10.855"/><use xlink:href="#7" y="13.026"/></svg><svg x="540"><use xlink:href="#a"/><use xlink:href="#b" x="-.004" y="19.514"/><use xlink:href="#1"/><use xlink:href="#2" y="2.171"/><use xlink:href="#3" y="4.342"/><use xlink:href="#4" y="6.513"/><use xlink:href="#5" y="8.684"/><use xlink:href="#6" y="10.855"/><use xlink:href="#7" y="13.026"/><use xlink:href="#8" y="15.197"/><use xlink:href="#9" y="17.368"/></svg><svg x="630"><use xlink:href="#a"/><use xlink:href="#b" x="-.004" y="23.856"/><use xlink:href="#1"/><use xlink:href="#2" y="2.171"/><use xlink:href="#3" y="4.342"/><use xlink:href="#4" y="6.513"/><use xlink:href="#5" y="8.684"/><use xlink:href="#6" y="10.855"/><use xlink:href="#7" y="13.026"/><use xlink:href="#8" y="15.197"/><use xlink:href="#9" y="17.368"/><use xlink:href="#10" y="19.539"/><use xlink:href="#11" y="21.71"/></svg><svg x="720"><use xlink:href="#a"/><use xlink:href="#b" x="-.004" y="34.711"/><use xlink:href="#1"/><use xlink:href="#2" y="2.171"/><use xlink:href="#3" y="4.342"/><use xlink:href="#4" y="6.513"/><use xlink:href="#5" y="8.684"/><use xlink:href="#6" y="10.855"/><use xlink:href="#7" y="13.026"/><use xlink:href="#8" y="15.197"/><use xlink:href="#9" y="17.368"/><use xlink:href="#10" y="19.539"/><use xlink:href="#11" y="21.71"/><use xlink:href="#12" y="23.881"/><use xlink:href="#13" y="26.052"/><use xlink:href="#14" y="28.223"/><use xlink:href="#15" y="30.394"/><use xlink:href="#16" y="32.565"/></svg><svg x="810"><use xlink:href="#a"/><use xlink:href="#b" x="-.004" y="36.882"/><use xlink:href="#1"/><use xlink:href="#2" y="2.171"/><use xlink:href="#3" y="4.342"/><use xlink:href="#4" y="6.513"/><use xlink:href="#5" y="8.684"/><use xlink:href="#6" y="10.855"/><use xlink:href="#7" y="13.026"/><use xlink:href="#8" y="15.197"/><use xlink:href="#9" y="17.368"/><use xlink:href="#10" y="19.539"/><use xlink:href="#11" y="21.71"/><use xlink:href="#12" y="23.881"/><use xlink:href="#13" y="26.052"/><use xlink:href="#14" y="28.223"/><use xlink:href="#15" y="30.394"/><use xlink:href="#16" y="32.565"/><use xlink:href="#17" y="34.736"/></svg><svg x="900"><use xlink:href="#a"/><use xlink:href="#b" x="-.004" y="54.25"/><use xlink:href="#1"/><use xlink:href="#2" y="2.171"/><use xlink:href="#3" y="4.342"/><use xlink:href="#4" y="6.513"/><use xlink:href="#5" y="8.684"/><use xlink:href="#6" y="10.855"/><use xlink:href="#7" y="13.026"/><use xlink:href="#8" y="15.197"/><use xlink:href="#9" y="17.368"/><use xlink:href="#10" y="19.539"/><use xlink:href="#11" y="21.71"/><use xlink:href="#12" y="23.881"/><use xlink:href="#13" y="26.052"/><use xlink:href="#14" y="28.223"/><use xlink:href="#15" y="30.394"/><use xlink:href="#16" y="32.565"/><use xlink:href="#17" y="34.736"/><use xlink:href="#18" y="36.907"/><use xlink:href="#19" y="39.078"/><use xlink:href="#20" y="41.249"/><use xlink:href="#21" y="43.42"/><use xlink:href="#22" y="45.591"/><use xlink:href="#23" y="47.762"/><use xlink:href="#24" y="49.933"/><use xlink:href="#25" y="52.104"/></svg><svg x="990"><use xlink:href="#a"/><use xlink:href="#b" x=".996" y="54.25"/><use xlink:href="#1"/><use xlink:href="#2" y="2.171"/><use xlink:href="#3" y="4.342"/><use xlink:href="#4" y="6.513"/><use xlink:href="#5" y="8.684"/><use xlink:href="#6" y="10.855"/><use xlink:href="#7" y="13.026"/><use xlink:href="#8" y="15.197"/><use xlink:href="#9" y="17.368"/><use xlink:href="#10" y="19.539"/><use xlink:href="#11" y="21.71"/><use xlink:href="#12" y="23.881"/><use xlink:href="#13" y="26.052"/><use xlink:href="#14" y="28.223"/><use xlink:href="#15" y="30.394"/><use xlink:href="#16" y="32.565"/><use xlink:href="#17" y="34.736"/><use xlink:href="#18" y="36.907"/><use xlink:href="#19" y="39.078"/><use xlink:href="#20" y="41.249"/><use xlink:href="#21" y="43.42"/><use xlink:href="#22" y="45.591"/><use xlink:href="#23" y="47.762"/><use xlink:href="#24" y="49.933"/><use xlink:href="#25" y="52.104"/><text y="55.945" class="f">⠙</text></svg><svg x="1080"><use xlink:href="#a"/><use xlink:href="#b" x="-.004" y="54.25"/><use xlink:href="#1"/><use xlink:href="#2" y="2.171"/><use xlink:href="#3" y="4.342"/><use xlink:href="#4" y="6.513"/><use xlink:href="#5" y="8.684"/><use xlink:href="#6" y="10.855"/><use xlink:href="#7" y="13.026"/><use xlink:href="#8" y="15.197"/><use xlink:href="#9" y="17.368"/><use xlink:href="#10" y="19.539"/><use xlink:href="#11" y="21.71"/><use xlink:href="#12" y="23.881"/><use xlink:href="#13" y="26.052"/><use xlink:href="#14" y="28.223"/><use xlink:href="#15" y="30.394"/><use xlink:href="#16" y="32.565"/><use xlink:href="#17" y="34.736"/><use xlink:href="#18" y="36.907"/><use xlink:href="#19" y="39.078"/><use xlink:href="#20" y="41.249"/><use xlink:href="#21" y="43.42"/><use xlink:href="#22" y="45.591"/><use xlink:href="#23" y="47.762"/><use xlink:href="#24" y="49.933"/><use xlink:href="#25" y="52.104"/></svg></svg></g></g></svg></svg>